<svg width="1200" height="360" viewBox="0 0 1200 360" fill="none" xmlns="http://www.w3.org/2000/svg">
  <defs>
    <linearGradient id="bg" x1="0" y1="0" x2="1200" y2="360" gradientUnits="userSpaceOnUse">
      <stop stop-color="#050816"/>
      <stop offset="0.45" stop-color="#0B1F33"/>
      <stop offset="1" stop-color="#123B5D"/>
    </linearGradient>
    <linearGradient id="glow" x1="220" y1="40" x2="980" y2="320" gradientUnits="userSpaceOnUse">
      <stop stop-color="#22D3EE" stop-opacity="0.35"/>
      <stop offset="1" stop-color="#F59E0B" stop-opacity="0.16"/>
    </linearGradient>
    <filter id="blur" x="-20%" y="-20%" width="140%" height="140%">
      <feGaussianBlur stdDeviation="40" />
    </filter>
  </defs>

  <rect width="1200" height="360" rx="28" fill="url(#bg)" />
  <circle cx="210" cy="92" r="110" fill="#22D3EE" fill-opacity="0.16" filter="url(#blur)" />
  <circle cx="1020" cy="280" r="130" fill="#F59E0B" fill-opacity="0.13" filter="url(#blur)" />
  <path d="M-40 286C144 220 286 210 420 252C566 298 702 332 858 284C1006 238 1128 200 1240 210V392H-40V286Z" fill="url(#glow)" />

  <rect x="72" y="64" width="18" height="232" rx="9" fill="#22D3EE" fill-opacity="0.9" />
  <text x="120" y="116" fill="#93C5FD" font-family="Inter, Segoe UI, Helvetica Neue, Arial, sans-serif" font-size="18" font-weight="700" letter-spacing="3">
    FRONT-END CORPORATIVO
  </text>
  <text x="120" y="160" fill="#F8FAFC" font-family="Inter, Segoe UI, Helvetica Neue, Arial, sans-serif" font-size="56" font-weight="800" letter-spacing="-0.6">
    Cristiano Lima Ribeiro
  </text>
  <text x="120" y="204" fill="#D1D5DB" font-family="Inter, Segoe UI, Helvetica Neue, Arial, sans-serif" font-size="26" font-weight="500">
    Front-end corporativo | React | TypeScript | Integrações
  </text>
  <text x="120" y="244" fill="#93C5FD" font-family="Inter, Segoe UI, Helvetica Neue, Arial, sans-serif" font-size="21" font-weight="500" letter-spacing="0.2">
    Interfaces, integrações e sustentação com foco em produto e negócio
  </text>

  <g transform="translate(120 258)">
    <rect x="0" y="0" width="132" height="34" rx="17" fill="#08111F" fill-opacity="0.72" stroke="#22D3EE" stroke-opacity="0.5" />
    <text x="18" y="23" fill="#E2E8F0" font-family="Segoe UI, Arial, sans-serif" font-size="16" font-weight="600">React</text>

    <rect x="144" y="0" width="148" height="34" rx="17" fill="#08111F" fill-opacity="0.72" stroke="#60A5FA" stroke-opacity="0.5" />
    <text x="162" y="23" fill="#E2E8F0" font-family="Segoe UI, Arial, sans-serif" font-size="16" font-weight="600">TypeScript</text>

    <rect x="304" y="0" width="160" height="34" rx="17" fill="#08111F" fill-opacity="0.72" stroke="#34D399" stroke-opacity="0.5" />
    <text x="322" y="23" fill="#E2E8F0" font-family="Segoe UI, Arial, sans-serif" font-size="16" font-weight="600">Microsoft 365</text>

    <rect x="476" y="0" width="140" height="34" rx="17" fill="#08111F" fill-opacity="0.72" stroke="#F59E0B" stroke-opacity="0.5" />
    <text x="494" y="23" fill="#E2E8F0" font-family="Segoe UI, Arial, sans-serif" font-size="16" font-weight="600">Node.js</text>
  </g>
</svg>
